<?xml version="1.0" encoding="UTF-8" standalone="no"?>
<!-- Created with Inkscape (http://www.inkscape.org/) -->

<svg
   xmlns:dc="http://purl.org/dc/elements/1.1/"
   xmlns:cc="http://creativecommons.org/ns#"
   xmlns:rdf="http://www.w3.org/1999/02/22-rdf-syntax-ns#"
   xmlns:svg="http://www.w3.org/2000/svg"
   xmlns="http://www.w3.org/2000/svg"
   xmlns:sodipodi="http://sodipodi.sourceforge.net/DTD/sodipodi-0.dtd"
   xmlns:inkscape="http://www.inkscape.org/namespaces/inkscape"
   width="101.6mm"
   height="34.029381mm"
   viewBox="0 0 101.6 34.029381"
   version="1.1"
   id="svg8"
   inkscape:version="0.92.3 (2405546, 2018-03-11)"
   sodipodi:docname="icon1.svg">
  <defs
     id="defs2" />
  <sodipodi:namedview
     id="base"
     pagecolor="#ffffff"
     bordercolor="#666666"
     borderopacity="1.0"
     inkscape:pageopacity="0.0"
     inkscape:pageshadow="2"
     inkscape:zoom="0.58662608"
     inkscape:cx="210.11795"
     inkscape:cy="-217.35072"
     inkscape:document-units="mm"
     inkscape:current-layer="layer1"
     showgrid="false"
     inkscape:window-width="1920"
     inkscape:window-height="1017"
     inkscape:window-x="-8"
     inkscape:window-y="-8"
     inkscape:window-maximized="1"
     inkscape:snap-global="true"
     fit-margin-top="0"
     fit-margin-left="0"
     fit-margin-right="0"
     fit-margin-bottom="0" />
  <metadata
     id="metadata5">
    <rdf:RDF>
      <cc:Work
         rdf:about="">
        <dc:format>image/svg+xml</dc:format>
        <dc:type
           rdf:resource="http://purl.org/dc/dcmitype/StillImage" />
        <dc:title></dc:title>
      </cc:Work>
    </rdf:RDF>
  </metadata>
  <g
     inkscape:label="Layer 1"
     inkscape:groupmode="layer"
     id="layer1"
     transform="translate(-58.396629,-66.27302)">
    <g
       id="g904"
       transform="translate(-142.54137,-54.217732)">
      <g
         id="g888">
        <path
           style="opacity:1;fill:#124166;fill-opacity:1;fill-rule:nonzero;stroke:none;stroke-width:1.00157475;stroke-linecap:round;stroke-linejoin:round;stroke-miterlimit:4;stroke-dasharray:none;stroke-dashoffset:0;stroke-opacity:1;paint-order:stroke fill markers"
           d="m 138.26953,305.55664 a 61.160153,29.327879 0 0 0 -61.160155,29.32813 61.160153,29.327879 0 0 0 61.160155,29.32812 61.160153,29.327879 0 0 0 61.16016,-29.32812 61.160153,29.327879 0 0 0 -61.16016,-29.32813 z m -0.0664,1.31836 a 55.5582,25.439463 0 0 1 55.5586,25.43945 55.5582,25.439463 0 0 1 -55.5586,25.43946 A 55.5582,25.439463 0 0 1 82.644531,332.31445 55.5582,25.439463 0 0 1 138.20312,306.875 Z"
           transform="scale(0.26458333)"
           id="path866"
           inkscape:connector-curvature="0" />
        <path
           style="opacity:1;fill:#124166;fill-opacity:1;fill-rule:nonzero;stroke:none;stroke-width:1.00157464;stroke-linecap:round;stroke-linejoin:round;stroke-miterlimit:4;stroke-dasharray:none;stroke-dashoffset:0;stroke-opacity:1;paint-order:stroke fill markers"
           d="m 139.12695,310.96094 a 34.732119,15.817281 0 0 0 -34.73242,15.81836 34.732119,15.817281 0 0 0 34.73242,15.8164 34.732119,15.817281 0 0 0 34.73047,-15.8164 34.732119,15.817281 0 0 0 -34.73047,-15.81836 z m 0.46094,0.26367 a 31.63457,13.70831 0 0 1 31.63477,13.70898 31.63457,13.70831 0 0 1 -31.63477,13.70703 31.63457,13.70831 0 0 1 -31.63477,-13.70703 31.63457,13.70831 0 0 1 31.63477,-13.70898 z"
           transform="scale(0.26458333)"
           id="path871"
           inkscape:connector-curvature="0" />
        <path
           style="opacity:1;fill:#124166;fill-opacity:1;fill-rule:nonzero;stroke:none;stroke-width:1.00157475;stroke-linecap:round;stroke-linejoin:round;stroke-miterlimit:4;stroke-dasharray:none;stroke-dashoffset:0;stroke-opacity:1;paint-order:stroke fill markers"
           d="m 169.28711,316.69336 a 42.574855,18.123969 0 0 1 11.82031,12.52344 42.574855,18.123969 0 0 1 -42.57422,18.125 42.574855,18.123969 0 0 1 -42.574216,-18.125 42.574855,18.123969 0 0 1 11.380856,-12.30078 48.176808,20.364751 0 0 0 -16.917965,15.46484 48.176808,20.364751 0 0 0 48.177735,20.36523 48.176808,20.364751 0 0 0 48.17578,-20.36523 48.176808,20.364751 0 0 0 -17.48828,-15.6875 z"
           transform="scale(0.26458333)"
           id="path876"
           inkscape:connector-curvature="0" />
      </g>
      <path
         sodipodi:nodetypes="caccccc"
         inkscape:connector-curvature="0"
         id="path890"
         d="m 45.169055,76.241803 c -0.362835,0.501179 -1.303461,1.334798 -2.145233,1.332387 -0.844448,-0.0024 -1.784734,-0.843416 -2.144361,-1.348927 -0.18047,-1.465573 -0.756993,-0.812709 0.04137,-3.706704 l 2.094011,-2.303669 2.224493,2.491939 c 0.508918,1.030863 0.153142,2.903352 -0.07028,3.534974 z"
         inkscape:transform-center-y="-0.25834047"
         inkscape:transform-center-x="-0.0043476774"
         style="opacity:1;fill:#ffffff;fill-opacity:1;fill-rule:nonzero;stroke:none;stroke-width:0.26499999;stroke-linecap:round;stroke-linejoin:round;stroke-miterlimit:4;stroke-dasharray:none;stroke-dashoffset:0;stroke-opacity:1;paint-order:stroke fill markers" />
      <path
         sodipodi:nodetypes="caaaaac"
         inkscape:connector-curvature="0"
         id="path893"
         d="m 36.72328,77.497307 c 0,0 -1.925236,1.825931 -2.336617,3.034443 -0.299687,0.880391 -0.423868,1.96221 0,2.79 0.434988,0.849506 1.368933,1.6521 2.323087,1.673661 1.01909,0.02303 2.074429,-0.777069 2.559399,-1.673661 0.442461,-0.818003 0.318051,-1.916076 0,-2.79 -0.451538,-1.240713 -2.545869,-3.034443 -2.545869,-3.034443 z"
         style="fill:#124166;fill-opacity:1;stroke:none;stroke-width:0.26458332px;stroke-linecap:butt;stroke-linejoin:miter;stroke-opacity:1" />
      <path
         style="fill:#124166;fill-opacity:1;stroke:none;stroke-width:0.26458332px;stroke-linecap:butt;stroke-linejoin:miter;stroke-opacity:1"
         d="m 36.674387,72.665736 c 0,0 -0.963038,0.913364 -1.168819,1.517884 -0.149909,0.440388 -0.212026,0.981534 0,1.395609 0.217589,0.424939 0.684766,0.826411 1.162051,0.837196 0.509768,0.01152 1.037668,-0.388704 1.280259,-0.837196 0.221327,-0.40918 0.159095,-0.958456 0,-1.395609 -0.225868,-0.620627 -1.273491,-1.517884 -1.273491,-1.517884 z"
         id="path895"
         inkscape:connector-curvature="0"
         sodipodi:nodetypes="caaaaac" />
    </g>
    <g
       id="g921"
       transform="translate(-88.442776,-28.039429)">
      <path
         sodipodi:nodetypes="caccaccc"
         inkscape:connector-curvature="0"
         id="path906"
         d="m 55.929529,78.016655 c 0,0 -1.738842,-1.589683 -2.663311,-2.318065 -1.648287,-1.298673 -3.26167,-2.693058 -5.12934,-3.649723 -2.335635,-1.029195 -5.630977,-2.443833 -7.841969,-1.183693 -1.557626,1.159147 -1.167616,2.912815 -0.345243,3.945644 2.667654,3.350345 8.76918,0.664605 12.724707,1.775541 1.138718,0.328583 3.255158,1.430296 3.255158,1.430296 z"
         style="fill:#124166;fill-opacity:1;stroke:none;stroke-width:0.26458332px;stroke-linecap:butt;stroke-linejoin:miter;stroke-opacity:1" />
      <path
         sodipodi:nodetypes="caaaasaac"
         inkscape:connector-curvature="0"
         id="path908"
         d="m 65.349759,79.052387 c 0,0 -3.066004,-0.219849 -4.438852,-0.838448 -5.084901,-2.291234 -9.779719,-5.867236 -13.217913,-10.258682 -1.973685,-2.520898 -4.440169,-5.623969 -3.896326,-8.77906 0.300254,-1.741919 1.895081,-3.6333 3.649722,-3.847005 2.421962,-0.294981 5.280983,1.671597 6.165072,3.945647 1.407081,3.61929 1.707022,9.106622 3.797684,13.168591 0.969375,1.883409 2.251553,3.709779 3.945646,4.981378 1.150008,0.863205 3.994967,1.627579 3.994967,1.627579 z"
         style="fill:#124166;fill-opacity:1;stroke:none;stroke-width:0.26458332px;stroke-linecap:butt;stroke-linejoin:miter;stroke-opacity:1" />
      <path
         sodipodi:nodetypes="cacacc"
         inkscape:connector-curvature="0"
         id="path910"
         d="m 46.065416,68.793708 c -0.542529,-0.78913 -1.827006,-1.839309 -2.860596,-2.61399 -1.216062,-0.911445 -2.46657,-1.852269 -3.896323,-2.367386 -1.613673,-0.612304 -4.804726,-0.128092 -4.734775,1.528937 0.08898,2.107726 4.379735,1.05548 6.165071,1.430295 1.849453,0.431752 5.326623,2.022144 5.326623,2.022144 z"
         style="fill:#124166;fill-opacity:1;stroke:none;stroke-width:0.26458332px;stroke-linecap:butt;stroke-linejoin:miter;stroke-opacity:1" />
      <path
         sodipodi:nodetypes="caaaac"
         inkscape:connector-curvature="0"
         id="path912"
         d="m 61.749357,75.994513 c 0,-0.443886 -0.292129,-2.562845 -0.246602,-3.847005 0.0823,-2.321268 1.361394,-4.621238 0.937091,-6.904881 -0.243278,-1.309348 -0.591837,-3.517334 -1.923503,-3.50176 -1.926389,0.02253 -2.590768,3.204184 -2.663311,5.129339 -0.12453,3.30479 3.896325,9.124307 3.896325,9.124307 z"
         style="fill:#124166;fill-opacity:1;stroke:none;stroke-width:0.26458332px;stroke-linecap:butt;stroke-linejoin:miter;stroke-opacity:1" />
      <path
         sodipodi:nodetypes="caaaac"
         inkscape:connector-curvature="0"
         id="path914"
         d="m 63.130331,75.106741 c 0,-0.591847 -0.338812,-3.83582 0.542528,-5.425263 0.664969,-1.199231 1.890084,-2.645375 3.255159,-2.515349 0.371045,0.03534 0.726346,0.46597 0.739807,0.838451 0.06567,1.817147 -2.376938,2.776241 -3.304479,4.34021 -0.514302,0.867188 -1.233015,2.761951 -1.233015,2.761951 z"
         style="fill:#124166;fill-opacity:1;stroke:none;stroke-width:0.26458332px;stroke-linecap:butt;stroke-linejoin:miter;stroke-opacity:1" />
    </g>
    <g
       id="g962"
       transform="translate(-205.21661,-4.1719864)">
      <path
         sodipodi:nodetypes="caaaaaac"
         inkscape:connector-curvature="0"
         id="path923"
         d="m 148.33102,78.421756 c 0,0 -0.57416,-4.523304 -1.63497,-6.483491 -1.41154,-2.608289 -3.37927,-5.214662 -6.03247,-6.53987 -3.1768,-1.586737 -7.28951,-2.358203 -10.5991,-1.071187 -1.73673,0.675368 -4.39017,2.432881 -3.72096,4.171987 1.56814,4.075171 8.85342,0.114211 13.02337,1.409454 2.07975,0.645999 4.1792,1.593 5.75057,3.100801 1.51392,1.452675 3.21356,5.412306 3.21356,5.412306 z"
         style="fill:#124166;fill-opacity:1;stroke:none;stroke-width:0.26458332px;stroke-linecap:butt;stroke-linejoin:miter;stroke-opacity:1" />
      <path
         sodipodi:nodetypes="caaaaaaac"
         inkscape:connector-curvature="0"
         id="path925"
         d="m 149.74047,54.96843 c 0,0 -0.85992,2.070785 -1.40945,3.044897 -0.89112,1.579605 -2.55696,2.762671 -3.04402,4.509673 -0.5053,1.812434 -0.73837,4.056701 0.28189,5.637622 0.84758,1.313339 2.60808,2.156489 4.17111,2.142675 1.4715,-0.01301 3.07956,-0.858408 3.8906,-2.086297 1.0502,-1.589993 1.00064,-3.853423 0.5074,-5.694 -0.48746,-1.819007 -2.35685,-2.963543 -3.2482,-4.622429 -0.49688,-0.924745 -1.14933,-2.932141 -1.14933,-2.932141 z"
         style="fill:#124166;fill-opacity:1;stroke:none;stroke-width:0.26458332px;stroke-linecap:butt;stroke-linejoin:miter;stroke-opacity:1" />
      <path
         sodipodi:nodetypes="caaaaaaac"
         inkscape:connector-curvature="0"
         id="path929"
         d="m 147.37259,78.816403 c 0,0 -1.38544,-2.31621 -2.36788,-3.213556 -1.15178,-1.052015 -2.46835,-2.143888 -4.00286,-2.424263 -2.03051,-0.371001 -4.3297,0.04774 -6.08884,1.127565 -1.02828,0.631192 -2.10059,1.672741 -2.19875,2.875288 -0.052,0.636834 0.28969,1.508935 0.90205,1.691343 2.32142,0.691496 4.03374,-2.85857 6.37073,-3.495447 0.59861,-0.163134 1.262,-0.220013 1.86048,-0.05638 2.10215,0.574765 5.52507,3.495448 5.52507,3.495448 z"
         style="fill:#124166;fill-opacity:1;stroke:none;stroke-width:0.26458332px;stroke-linecap:butt;stroke-linejoin:miter;stroke-opacity:1" />
      <path
         style="fill:#124166;fill-opacity:1;stroke:none;stroke-width:0.26458332px;stroke-linecap:butt;stroke-linejoin:miter;stroke-opacity:1"
         d="m 149.18022,78.901947 c 0,0 1.07324,-2.234864 1.92251,-3.048028 1.13008,-1.082026 2.52296,-2.056671 4.01312,-2.236096 1.78425,-0.214839 3.86683,0.171944 5.20465,1.472135 0.70203,0.682283 1.64602,2.100855 1.0212,2.874325 -1.46411,1.812445 -4.20911,-1.634281 -6.4116,-1.760509 -1.09848,-0.06296 -2.25962,0.02634 -3.27029,0.507351 -0.97373,0.46343 -2.47959,2.190822 -2.47959,2.190822 z"
         id="path931"
         inkscape:connector-curvature="0"
         sodipodi:nodetypes="caaaaaac" />
      <path
         style="fill:#124166;fill-opacity:1;stroke:none;stroke-width:0.26458332px;stroke-linecap:butt;stroke-linejoin:miter;stroke-opacity:1"
         d="m 149.34257,77.450333 c 0,0 -0.1791,-1.565789 -0.0689,-2.336109 0.12913,-0.903092 0.31198,-1.8849 0.84088,-2.576441 0.69986,-0.915083 1.75924,-1.568486 2.81152,-1.721863 0.61508,-0.08966 1.37851,-0.0082 1.80077,0.504456 0.22363,0.271501 0.36355,0.794958 0.17493,1.103106 -0.71501,1.168189 -2.53459,0.177156 -3.67866,0.744897 -0.29304,0.145424 -0.57837,0.363128 -0.76735,0.657619 -0.66385,1.034378 -1.1131,3.624354 -1.1131,3.624354 z"
         id="path933"
         inkscape:connector-curvature="0"
         sodipodi:nodetypes="caaaaaaac" />
      <circle
         r="1.1557529"
         cy="62.494911"
         cx="141.3683"
         id="path937"
         style="opacity:1;fill:#124166;fill-opacity:1;fill-rule:nonzero;stroke:none;stroke-width:0.26499999;stroke-linecap:round;stroke-linejoin:round;stroke-miterlimit:4;stroke-dasharray:none;stroke-dashoffset:0;stroke-opacity:1;paint-order:stroke fill markers" />
      <circle
         style="opacity:1;fill:#124166;fill-opacity:1;fill-rule:nonzero;stroke:none;stroke-width:0.26499999;stroke-linecap:round;stroke-linejoin:round;stroke-miterlimit:4;stroke-dasharray:none;stroke-dashoffset:0;stroke-opacity:1;paint-order:stroke fill markers"
         id="circle939"
         cx="156.9005"
         cy="70.359673"
         r="1.8041021" />
    </g>
    <path
       style="fill:#124166;fill-opacity:1;stroke:none;stroke-width:0.26458332px;stroke-linecap:butt;stroke-linejoin:miter;stroke-opacity:1"
       d="m 58.396629,93.277087 c 0,0 4.001159,3.37046 6.380976,4.353576 3.151975,1.302092 6.659699,2.179274 10.056846,1.879681 5.470894,-0.482493 10.020946,-4.787692 15.416149,-5.814945 2.34336,-0.446184 4.85771,-0.752435 7.1555,-0.111664 2.46174,0.686492 3.98653,3.595595 6.49789,4.069473 7.56412,1.4273 15.13277,-5.733851 22.69227,-4.282303 4.14686,0.796247 6.5167,6.167484 10.6928,6.792495 4.89443,0.73251 9.97924,-1.554574 14.3136,-3.943131 3.31394,-1.82623 8.39397,-7.641745 8.39397,-7.641745 0,0 -10.41819,5.070894 -15.45002,3.475467 -3.26603,-1.03557 -7.35583,-4.226752 -6.89628,-7.622088 0.46719,-3.45188 8.81881,-5.606472 8.81881,-5.606472 0,0 -0.52949,-2.359578 -4.2903,-2.802362 -0.5076,-0.05978 -1.07406,-0.08459 -1.70605,-0.06402 -9.35088,0.979249 -16.6713,13.536627 -26.24008,12.257307 -3.43468,-0.459207 -7.38115,-3.298337 -7.93218,-6.719496 -0.53758,-3.337664 2.38822,-6.917455 5.28893,-8.653794 2.35808,-1.411515 8.23159,-0.466089 8.23159,-0.466089 0.34784,0.08827 -1.19911,-4.353347 -5.36518,-5.530196 -6.32017,-1.785347 -13.57585,0.872338 -19.25659,4.167998 -5.49139,3.18581 -9.171072,8.40289 -12.737486,14.159737 -5.142795,8.301448 -23.704644,10.105265 -24.065165,8.102561 z"
       id="path964"
       inkscape:connector-curvature="0"
       sodipodi:nodetypes="caaaaaaaacaacscaaacsasc" />
    <g
       transform="translate(-57.844023,-75.321262)"
       id="g985">
      <path
         sodipodi:nodetypes="caccccc"
         inkscape:connector-curvature="0"
         id="path966"
         d="m 44.21073,164.32795 c 0.183245,-0.0367 -1.33784,-2.3817 -2.511522,-2.87031 -6.625512,-2.75824 -17.717479,8.4123 -21.48745,1.35546 -0.440085,-0.75537 -0.877039,-2.47166 -0.877039,-2.47166 0.03744,15.12457 14.777358,1.71799 21.846238,2.60223 1.095826,0.17901 3.029773,1.38433 3.029773,1.38433 z"
         style="fill:#124166;fill-opacity:1;stroke:none;stroke-width:0.26458332px;stroke-linecap:butt;stroke-linejoin:miter;stroke-opacity:1" />
      <g
         id="g979">
        <path
           sodipodi:nodetypes="caccccc"
           inkscape:connector-curvature="0"
           id="path968"
           d="m 39.984998,161.33805 c 0.183245,-0.0367 -1.33784,-2.3817 -2.511522,-2.87031 -6.625512,-2.75824 -17.717479,8.4123 -21.48745,1.35546 -0.440085,-0.75537 -0.877039,-2.47166 -0.877039,-2.47166 0.03744,15.12457 14.777358,1.71799 21.846238,2.60223 1.095826,0.17901 3.029773,1.38433 3.029773,1.38433 z"
           style="fill:#124166;fill-opacity:1;stroke:none;stroke-width:0.26458332px;stroke-linecap:butt;stroke-linejoin:miter;stroke-opacity:1" />
        <path
           style="fill:#124166;fill-opacity:1;stroke:none;stroke-width:0.26458332px;stroke-linecap:butt;stroke-linejoin:miter;stroke-opacity:1"
           d="m 35.878862,158.26841 c 0.183245,-0.0367 -1.33784,-2.3817 -2.511522,-2.87031 -6.625512,-2.75824 -17.717479,8.4123 -21.48745,1.35546 -0.440085,-0.75537 -0.877039,-2.47166 -0.877039,-2.47166 0.03744,15.12457 14.777358,1.71799 21.846238,2.60223 1.095826,0.17901 3.029773,1.38433 3.029773,1.38433 z"
           id="path970"
           inkscape:connector-curvature="0"
           sodipodi:nodetypes="caccccc" />
      </g>
    </g>
    <g
       id="g1026"
       transform="translate(-171.3897,-25.257429)">
      <path
         style="fill:#124166;fill-opacity:1;stroke:none;stroke-width:0.26458332px;stroke-linecap:butt;stroke-linejoin:miter;stroke-opacity:1"
         d="m 127.29022,133.19307 c 0,0 -2.77145,-2.66468 -4.54466,-2.79058 -4.33383,-0.30771 -7.73653,4.16159 -11.95962,5.1825 -1.57919,0.38176 -4.86358,0.31893 -4.86358,0.31893 0,0 4.58514,1.26281 6.85685,0.87703 3.51534,-0.59698 6.02482,-4.38129 9.56769,-4.78384 1.68447,-0.19139 4.94332,1.19596 4.94332,1.19596 z"
         id="path987"
         inkscape:connector-curvature="0"
         sodipodi:nodetypes="caacaac" />
      <path
         style="fill:#124166;fill-opacity:1;stroke:none;stroke-width:0.26458332px;stroke-linecap:butt;stroke-linejoin:miter;stroke-opacity:1"
         d="m 128.40645,131.75791 c 0,0 -2.9488,-4.83922 -5.4217,-5.74062 -5.8817,-2.14393 -13.7407,5.9641 -18.657,2.15274 -2.40766,-1.86654 -2.91182,-6.18936 1.0365,-7.21564 1.23381,-0.32071 2.79593,1.42445 2.75071,1.51489 0,0 -0.0893,-2.57726 -0.95677,-3.3487 -1.23745,-1.1004 -4.90344,-0.7973 -4.90344,-0.7973 -0.19817,-0.51 -0.44773,-1.84402 2.31219,-1.27569 0.14234,-0.19669 -1.75789,-1.37747 -3.34868,-1.11623 -1.862768,0.3059 -2.201021,2.01226 -2.670993,1.7142 -0.431715,-0.2738 -0.365685,-0.36871 -0.279055,-1.11624 -1.15872,0 -5.057875,3.41082 -5.102775,6.21901 -0.064,4.00494 2.39919,8.43428 5.939958,10.4846 4.433795,2.56746 10.277115,2.04689 15.467755,-0.9169 3.98982,-2.27814 6.51471,-7.66457 13.8333,-0.55812 z"
         id="path989"
         inkscape:connector-curvature="0"
         sodipodi:nodetypes="casscaccsscsssc" />
      <path
         sodipodi:nodetypes="caaac"
         inkscape:connector-curvature="0"
         id="path1000"
         d="m 105.68318,117.3665 c 0,0 2.19543,-1.0715 3.26896,-0.75745 0.78465,0.22955 2.14346,1.05831 1.71421,1.75409 -0.5053,0.81906 -1.80406,-0.70373 -2.75071,-0.87705 -0.73304,-0.13421 -2.23246,-0.11959 -2.23246,-0.11959 z"
         style="fill:#124166;fill-opacity:1;stroke:none;stroke-width:0.26458332px;stroke-linecap:butt;stroke-linejoin:miter;stroke-opacity:1" />
    </g>
    <g
       id="g1061"
       transform="translate(-215.47744,-30.444223)">
      <path
         inkscape:connector-curvature="0"
         id="path1028"
         d="m 143.62679,153.72263 a 5.1961822,3.5480207 0 0 0 -0.004,0.0506 5.1961822,3.5480207 0 0 0 5.19658,3.5481 5.1961822,3.5480207 0 0 0 5.18418,-3.38688 5.5626412,3.5480207 0 0 1 -5.12785,2.17455 5.5626412,3.5480207 0 0 1 -5.24929,-2.38642 z"
         style="opacity:1;fill:#124166;fill-opacity:1;fill-rule:nonzero;stroke:none;stroke-width:0.26499999;stroke-linecap:round;stroke-linejoin:round;stroke-miterlimit:4;stroke-dasharray:none;stroke-dashoffset:0;stroke-opacity:1;paint-order:stroke fill markers" />
      <path
         style="opacity:1;fill:#124166;fill-opacity:1;fill-rule:nonzero;stroke:none;stroke-width:0.26499999;stroke-linecap:round;stroke-linejoin:round;stroke-miterlimit:4;stroke-dasharray:none;stroke-dashoffset:0;stroke-opacity:1;paint-order:stroke fill markers"
         d="m 154.00755,153.88385 a 5.1961822,3.5480207 0 0 0 -0.004,0.0506 5.1961822,3.5480207 0 0 0 5.19658,3.5481 5.1961822,3.5480207 0 0 0 5.18418,-3.38688 5.5626412,3.5480207 0 0 1 -5.12785,2.17455 5.5626412,3.5480207 0 0 1 -5.24929,-2.38642 z"
         id="path1033"
         inkscape:connector-curvature="0" />
      <path
         inkscape:connector-curvature="0"
         id="path1035"
         d="m 164.38831,154.04507 a 5.1961822,3.5480207 0 0 0 -0.004,0.0506 5.1961822,3.5480207 0 0 0 5.19658,3.5481 5.1961822,3.5480207 0 0 0 5.18418,-3.38688 5.5626412,3.5480207 0 0 1 -5.12785,2.17455 5.5626412,3.5480207 0 0 1 -5.24929,-2.38642 z"
         style="opacity:1;fill:#124166;fill-opacity:1;fill-rule:nonzero;stroke:none;stroke-width:0.26499999;stroke-linecap:round;stroke-linejoin:round;stroke-miterlimit:4;stroke-dasharray:none;stroke-dashoffset:0;stroke-opacity:1;paint-order:stroke fill markers" />
      <path
         style="opacity:1;fill:#124166;fill-opacity:1;fill-rule:nonzero;stroke:none;stroke-width:0.26499999;stroke-linecap:round;stroke-linejoin:round;stroke-miterlimit:4;stroke-dasharray:none;stroke-dashoffset:0;stroke-opacity:1;paint-order:stroke fill markers"
         d="m 138.31633,160.3438 a 5.1961822,3.5480207 0 0 0 -0.004,0.0506 5.1961822,3.5480207 0 0 0 5.19658,3.5481 5.1961822,3.5480207 0 0 0 5.18418,-3.38688 5.5626412,3.5480207 0 0 1 -5.12785,2.17455 5.5626412,3.5480207 0 0 1 -5.24929,-2.38642 z"
         id="path1037"
         inkscape:connector-curvature="0" />
      <path
         inkscape:connector-curvature="0"
         id="path1039"
         d="m 148.69709,160.50502 a 5.1961822,3.5480207 0 0 0 -0.004,0.0506 5.1961822,3.5480207 0 0 0 5.19658,3.5481 5.1961822,3.5480207 0 0 0 5.18418,-3.38688 5.5626412,3.5480207 0 0 1 -5.12785,2.17455 5.5626412,3.5480207 0 0 1 -5.24929,-2.38642 z"
         style="opacity:1;fill:#124166;fill-opacity:1;fill-rule:nonzero;stroke:none;stroke-width:0.26499999;stroke-linecap:round;stroke-linejoin:round;stroke-miterlimit:4;stroke-dasharray:none;stroke-dashoffset:0;stroke-opacity:1;paint-order:stroke fill markers" />
      <path
         style="opacity:1;fill:#124166;fill-opacity:1;fill-rule:nonzero;stroke:none;stroke-width:0.26499999;stroke-linecap:round;stroke-linejoin:round;stroke-miterlimit:4;stroke-dasharray:none;stroke-dashoffset:0;stroke-opacity:1;paint-order:stroke fill markers"
         d="m 159.07423,160.71689 a 5.1961822,3.5480207 0 0 0 -0.004,0.0506 5.1961822,3.5480207 0 0 0 5.19658,3.5481 5.1961822,3.5480207 0 0 0 5.18418,-3.38688 5.5626412,3.5480207 0 0 1 -5.12785,2.17455 5.5626412,3.5480207 0 0 1 -5.24929,-2.38642 z"
         id="path1041"
         inkscape:connector-curvature="0" />
      <path
         inkscape:connector-curvature="0"
         id="path1043"
         d="m 169.45499,160.87811 a 5.1961822,3.5480207 0 0 0 -0.004,0.0506 5.1961822,3.5480207 0 0 0 5.19658,3.5481 5.1961822,3.5480207 0 0 0 5.18418,-3.38688 5.5626412,3.5480207 0 0 1 -5.12785,2.17455 5.5626412,3.5480207 0 0 1 -5.24929,-2.38642 z"
         style="opacity:1;fill:#124166;fill-opacity:1;fill-rule:nonzero;stroke:none;stroke-width:0.26499999;stroke-linecap:round;stroke-linejoin:round;stroke-miterlimit:4;stroke-dasharray:none;stroke-dashoffset:0;stroke-opacity:1;paint-order:stroke fill markers" />
      <path
         style="opacity:1;fill:#124166;fill-opacity:1;fill-rule:nonzero;stroke:none;stroke-width:0.26499999;stroke-linecap:round;stroke-linejoin:round;stroke-miterlimit:4;stroke-dasharray:none;stroke-dashoffset:0;stroke-opacity:1;paint-order:stroke fill markers"
         d="m 143.54248,167.01738 a 5.1961822,3.5480207 0 0 0 -0.004,0.0506 5.1961822,3.5480207 0 0 0 5.19658,3.5481 5.1961822,3.5480207 0 0 0 5.18418,-3.38688 5.5626412,3.5480207 0 0 1 -5.12785,2.17455 5.5626412,3.5480207 0 0 1 -5.24929,-2.38642 z"
         id="path1045"
         inkscape:connector-curvature="0" />
      <path
         inkscape:connector-curvature="0"
         id="path1047"
         d="m 153.92324,167.1786 a 5.1961822,3.5480207 0 0 0 -0.004,0.0506 5.1961822,3.5480207 0 0 0 5.19658,3.5481 5.1961822,3.5480207 0 0 0 5.18418,-3.38688 5.5626412,3.5480207 0 0 1 -5.12785,2.17455 5.5626412,3.5480207 0 0 1 -5.24929,-2.38642 z"
         style="opacity:1;fill:#124166;fill-opacity:1;fill-rule:nonzero;stroke:none;stroke-width:0.26499999;stroke-linecap:round;stroke-linejoin:round;stroke-miterlimit:4;stroke-dasharray:none;stroke-dashoffset:0;stroke-opacity:1;paint-order:stroke fill markers" />
      <path
         style="opacity:1;fill:#124166;fill-opacity:1;fill-rule:nonzero;stroke:none;stroke-width:0.26499999;stroke-linecap:round;stroke-linejoin:round;stroke-miterlimit:4;stroke-dasharray:none;stroke-dashoffset:0;stroke-opacity:1;paint-order:stroke fill markers"
         d="m 164.30038,167.39047 a 5.1961822,3.5480207 0 0 0 -0.004,0.0506 5.1961822,3.5480207 0 0 0 5.19658,3.5481 5.1961822,3.5480207 0 0 0 5.18418,-3.38688 5.5626412,3.5480207 0 0 1 -5.12785,2.17455 5.5626412,3.5480207 0 0 1 -5.24929,-2.38642 z"
         id="path1049"
         inkscape:connector-curvature="0" />
    </g>
  </g>
</svg>
